<?xml version="1.0" encoding="UTF-8"?>
<svg version="1.1" xmlns="http://www.w3.org/2000/svg" width="100" height="100">
<path d="M0 0 C1.0209375 -0.02449219 2.041875 -0.04898437 3.09375 -0.07421875 C10.19478236 -0.10125314 17.0379907 0.67801211 23.25 4.375 C27.50309987 8.96974232 26.64610071 14.89464774 26.578125 20.7734375 C26.57625183 21.88175934 26.57437866 22.99008118 26.57244873 24.13198853 C26.56573387 26.47376518 26.55183068 28.81553072 26.53125 31.15722656 C26.50017462 34.72992463 26.49028374 38.30218032 26.484375 41.875 C26.47520086 44.15365117 26.46482379 46.43229789 26.453125 48.7109375 C26.44887512 49.77468597 26.44462524 50.83843445 26.44024658 51.93441772 C26.33918296 62.49980402 26.33918296 62.49980402 25.25 67.375 C18.46524009 73.3520504 10.61293893 73.73740798 2 73.75 C1.1028125 73.77449219 0.205625 73.79898438 -0.71875 73.82421875 C-7.21663393 73.85340086 -7.21663393 73.85340086 -9.796875 71.5390625 C-10.75 69.375 -10.75 69.375 -11.75 66.375 C-11.976875 67.014375 -12.20375 67.65375 -12.4375 68.3125 C-13.75 70.375 -13.75 70.375 -16 71.375 C-20.05073659 71.375 -21.7845804 70.070836 -24.75 67.375 C-25.54145616 63.67540261 -25.78802825 60.12598251 -25.75 56.359375 C-25.67323209 45.42634574 -28.00710486 40.39395762 -35.75 32.375 C-37.5675604 29.77135513 -39.14565514 27.11791218 -40.75 24.375 C-38.94587357 21.11039027 -37.91605307 19.48570205 -34.75 17.375 C-30.92224623 17.62195186 -29.30801402 19.71551987 -26.75 22.375 C-26.67523438 21.26640625 -26.60046875 20.1578125 -26.5234375 19.015625 C-26.39208222 17.55195183 -26.25918868 16.08841613 -26.125 14.625 C-26.07988281 13.89539062 -26.03476562 13.16578125 -25.98828125 12.4140625 C-25.57895955 8.32084548 -25.26153471 6.8367393 -22.1015625 3.984375 C-14.69221092 0.42650454 -8.08780656 0.01005946 0 0 Z " fill="#F99F40" transform="translate(53.75,12.625)"/>
<path d="M0 0 C3 0.25 3 0.25 5 2.25 C5.33302312 5.3804173 5.47671956 7.42898298 3.875 10.1875 C2 11.25 2 11.25 -1.0625 11.125 C-4 10.25 -4 10.25 -6 7.25 C-5.5601518 2.74155593 -4.87125629 0.40593802 0 0 Z " fill="#E3D7D6" transform="translate(44,45.75)"/>
<path d="M0 0 C3.625 0.375 3.625 0.375 7 1 C8.32561852 7.38707103 8.32561852 7.38707103 6.9375 10 C3.99948754 11.51639353 2.09843192 10.92293717 -1 10 C-3 7 -3 7 -2.75 4.4375 C-2 2 -2 2 0 0 Z " fill="#E2D7D8" transform="translate(62,46)"/>
<path d="M0 0 C3.3 0 6.6 0 10 0 C9.34 1.65 8.68 3.3 8 5 C3.48279689 5.36625971 3.48279689 5.36625971 1.1875 3.625 C0 2 0 2 0 0 Z " fill="#522A4A" transform="translate(49,57)"/>
</svg>
